PathFileType	4	(X/Y/Z)	Patient4_TMGait_0pt4_01_right_14.trc.trc
DataRate	CameraRate	NumFrames	NumMarkers	Units	OrigDataRate	OrigDataStartFrame	OrigNumFrames
77.777777777778	77.777777777778	4	33	mm	77.777777777778	71	       141
Frame#	Time	Sacral			L.Shoulder			Chest			R.Shoulder			Neck			R.ASIS			L.ASIS			R.Thigh.Superior			R.Thigh.Lateral			R.Thigh.Inferior			R.Patella			L.Thigh.Superior			L.Thigh.Lateral			L.Thigh.Inferior			L.Patella			L.Shank.Superior			L.Shank.Lateral			L.Shank.Inferior			R.Shank.Superior			R.Shank.Lateral			R.Shank.Inferior			R.Heel			R.Midfoot.Superior			R.Midfoot.Lateral			R.Toe			L.Heel			L.Midfoot.Lateral			L.Midfoot.Superior			L.Toe			L.Elbow			L.Wrist			R.Elbow			R.Wrist			
		X1	Y1	Z1	X2	Y2	Z2	X3	Y3	Z3	X4	Y4	Z4	X5	Y5	Z5	X6	Y6	Z6	X7	Y7	Z7	X8	Y8	Z8	X9	Y9	Z9	X10	Y10	Z10	X11	Y11	Z11	X12	Y12	Z12	X13	Y13	Z13	X14	Y14	Z14	X15	Y15	Z15	X16	Y16	Z16	X17	Y17	Z17	X18	Y18	Z18	X19	Y19	Z19	X20	Y20	Z20	X21	Y21	Z21	X22	Y22	Z22	X23	Y23	Z23	X24	Y24	Z24	X25	Y25	Z25	X26	Y26	Z26	X27	Y27	Z27	X28	Y28	Z28	X29	Y29	Z29	X30	Y30	Z30	X31	Y31	Z31	X32	Y32	Z32	X33	Y33	Z33	

71	18.950000000000	816.213647735939	1013.700004958904	515.857499744295	974.026103547131	1428.084786233769	295.375576852339	1108.364496942084	1358.686866364238	430.728044966979	1069.145025083980	1441.604216286976	616.671221791748	994.481717919260	1492.491974204553	460.623047842192	1057.964685605588	937.382255124716	592.250392619374	997.815736702856	956.705547673869	324.111165933500	1054.257153733618	726.755009290843	568.304176874294	960.205097517925	632.871580215627	642.439324053832	1013.747086530198	567.500219252564	557.246190916556	999.353914163506	485.810597434978	565.238150906253	1067.780368229840	763.995379234096	349.009243935544	1000.734042479673	638.674775005290	281.923058757168	1107.583973090514	575.629496953040	331.700431340130	1123.223928455389	504.241298204681	330.219114498463	1096.095125607813	430.972318012146	322.252149711662	1005.347773083047	314.121867691332	278.093632915593	1076.077145613150	201.784281598779	329.861054424674	965.754949073241	401.006005716841	575.736289418802	892.837888354362	303.146546372262	645.480630289887	921.844807842706	205.099833856793	579.023880238966	776.881510029046	43.673129593113	558.847390269851	950.532682990221	96.467035130819	585.545824063434	864.080999265710	36.806775576845	629.046980818944	1071.711523956451	41.041069286156	606.276076303247	965.355252238912	40.354108052548	375.303810043169	1032.227886974136	37.515830177708	289.291138257087	1115.687742243428	101.441007100922	307.342616531069	1241.227857494592	54.047078156896	268.947888266640	864.515833485626	1085.158959020595	209.960632224589	880.828048096318	827.193535759124	173.524852930475	1185.999974892036	1122.031745834258	736.002021195834	1409.825141802588	1107.240126036953	620.687109609344	
72	18.962857142857	816.673070992885	1012.725727238129	512.404893300662	972.810210843828	1427.493947645811	291.908499228524	1106.953338215371	1359.171874669282	427.977394864709	1066.251554051634	1441.808373425891	613.775047270246	992.342012109491	1492.278419974628	457.181302557119	1058.475852386682	937.340108523732	589.917840230624	999.156831070364	956.015717190803	321.689962854697	1054.331251704135	726.285236245011	566.283978893166	959.423604389327	632.790233929019	640.425261486329	1012.711074388197	566.910634957136	555.687797627656	997.785201125207	484.973674235863	563.691005629718	1068.216232517449	761.653432413067	346.368654673182	998.891822855421	636.951865138952	280.945022003626	1105.502834103743	573.246026694142	330.480174322298	1119.821223174614	501.782188294171	329.875700700423	1092.802508539719	428.557672862377	321.781901944402	1001.558043336506	311.918286757696	278.156448058323	1071.521841575892	199.516389138889	330.452439796251	963.382160116400	400.497997871295	574.486200747254	889.580082523091	303.526734910304	644.662551217678	917.757839416210	204.968880278962	578.564655687152	771.760444889484	44.064807639785	558.960130632123	945.496498927918	96.525233489801	585.550534240321	858.966696642046	36.920414321446	629.058752562635	1066.569764599951	40.891485608650	606.332818205885	959.828739269703	39.241832301901	376.790964363482	1026.196707487948	36.294241420239	290.280056186918	1110.118675597903	99.480400154747	308.292439736932	1235.404418521272	51.443833356437	268.981897803137	866.187360209242	1083.909513691779	205.607534098579	884.820150728273	826.213775660524	168.440271681232	1181.620135813666	1121.389341945337	733.701748046500	1404.501476782970	1101.954401176648	616.861195520260	
73	18.975714285714	817.044920429305	1011.976277783214	508.978099073266	971.663821458309	1427.006387835316	288.337149170447	1105.620480779197	1359.711746543545	425.083566069334	1063.575422137707	1442.146874302087	610.719644753108	990.338695747378	1492.201085242633	453.598578486030	1058.869599991356	937.385466521823	587.379098627164	1000.274199237471	955.620369475798	319.107031398869	1054.563112130350	725.951531573779	564.059396954685	959.008343469143	632.749983497398	638.245090915394	1012.122843711751	566.419826659683	553.910003786788	996.756884821398	484.128999360315	561.972012450503	1068.690678943538	759.963223014289	343.751003640581	997.685955686096	635.858513642004	279.625749516145	1103.809931712897	571.504482579479	329.264945138437	1116.953633350838	499.904681806444	329.410976727454	1089.995504339361	426.651168119142	321.200551761380	998.337838243176	310.320973798456	277.633381562184	1067.129141719199	197.762631296075	330.758012447875	961.464709818456	399.992478724063	573.121576631912	886.649942328891	304.038162856534	643.733627502023	913.884734913118	204.915612826051	578.076207311800	766.679334427108	44.698579819094	559.106484176749	940.548724036979	96.630752265230	585.559570085779	853.894712865192	37.144945165233	629.066485394900	1061.458658866355	40.688109505812	606.392121959293	954.222308259468	38.528241680616	377.703789581782	1020.271965164795	35.515337933222	290.858728777034	1104.567639170064	98.080593640545	308.977380702272	1229.701869665089	49.465388814164	269.030074285248	868.199601232454	1082.722349204885	201.036260784118	889.455696567615	825.357578145587	163.054117413805	1176.517144211178	1120.610162910514	731.521314185868	1398.507826063339	1095.579726571349	613.619524471749	
74	18.988571428571	817.303949559889	1011.468553358644	505.583086210267	970.582012477909	1426.659609122161	284.710125770507	1104.372396284132	1360.297513132674	422.065040095476	1061.173593483367	1442.623067018232	607.525034784024	988.491902471260	1492.272045067864	449.926177071365	1059.106714830209	937.547699208936	584.635838110039	1001.128537869337	955.518494559411	316.333628403391	1054.888293788748	725.787360178691	561.644210931547	958.939721101361	632.767605634779	635.927125432346	1011.991213101300	566.050004351222	551.945638378787	996.303931892880	483.287365895124	560.150139623462	1069.171191282025	758.950236085745	341.154756131740	997.062499701201	635.356737448537	277.933691310454	1102.444118407936	570.348198408096	327.958990000280	1114.548829863912	498.565650351113	328.745765094854	1087.606437825533	425.223626255543	320.473393295852	995.626969969432	309.266523271281	276.564523156994	1062.932398688390	196.495844809021	330.783436339688	960.018683928532	399.505218025300	571.687361241357	884.046618737354	304.701768270435	642.713486346284	910.241286932360	204.967159342955	577.583805591055	761.647072459504	45.625440063217	559.284033560812	935.710028594801	96.793164262150	585.579129262375	848.870501939040	37.509193746212	629.072175248753	1056.381160896211	40.431334514462	606.451590956871	948.662399129529	38.153948411437	378.114324609811	1014.553759331960	35.103958697571	291.080648497257	1099.134319558521	97.188399897091	309.393809613230	1224.203476179735	48.065937110576	269.066513149927	870.504030658812	1081.659499180509	196.286922003960	894.715674695878	824.694799781635	157.411532547419	1170.723267848234	1119.717852378114	729.423567151603	1391.836210341392	1088.121510621090	610.981060980573	
